<svg width="48" height="46" viewBox="0 0 48 46" fill="none" xmlns="http://www.w3.org/2000/svg">
<path d="M23.5 22.9001C23.5 22.9001 34.3 16.2001 34.3 8.80015C34.3 4.30015 29 -0.699853 23.5 4.90015C17.9 -0.599853 12 4.40015 12 8.90015C12 16.2001 23.5 22.9001 23.5 22.9001Z" stroke="#8D8D8D" stroke-width="3" stroke-miterlimit="10"/>
<path d="M5.57031 41.3848H2.13672V45H0.654297V36.4688H6.07422V37.6641H2.13672V40.2012H5.57031V41.3848ZM10.7031 45C10.6406 44.8789 10.5859 44.6816 10.5391 44.4082C10.0859 44.8809 9.53125 45.1172 8.875 45.1172C8.23828 45.1172 7.71875 44.9355 7.31641 44.5723C6.91406 44.209 6.71289 43.7598 6.71289 43.2246C6.71289 42.5488 6.96289 42.0312 7.46289 41.6719C7.9668 41.3086 8.68555 41.127 9.61914 41.127H10.4922V40.7109C10.4922 40.3828 10.4004 40.1211 10.2168 39.9258C10.0332 39.7266 9.75391 39.627 9.37891 39.627C9.05469 39.627 8.78906 39.709 8.58203 39.873C8.375 40.0332 8.27148 40.2383 8.27148 40.4883H6.84766C6.84766 40.1406 6.96289 39.8164 7.19336 39.5156C7.42383 39.2109 7.73633 38.9727 8.13086 38.8008C8.5293 38.6289 8.97266 38.543 9.46094 38.543C10.2031 38.543 10.7949 38.7305 11.2363 39.1055C11.6777 39.4766 11.9043 40 11.916 40.6758V43.5352C11.916 44.1055 11.9961 44.5605 12.1562 44.9004V45H10.7031ZM9.13867 43.9746C9.41992 43.9746 9.68359 43.9062 9.92969 43.7695C10.1797 43.6328 10.3672 43.4492 10.4922 43.2188V42.0234H9.72461C9.19727 42.0234 8.80078 42.1152 8.53516 42.2988C8.26953 42.4824 8.13672 42.7422 8.13672 43.0781C8.13672 43.3516 8.22656 43.5703 8.40625 43.7344C8.58984 43.8945 8.83398 43.9746 9.13867 43.9746ZM15.5488 43.1953L16.8906 38.6602H18.3613L16.1641 45H14.9277L12.7129 38.6602H14.1895L15.5488 43.1953ZM18.8945 41.7715C18.8945 41.1504 19.0176 40.5918 19.2637 40.0957C19.5098 39.5957 19.8555 39.2129 20.3008 38.9473C20.7461 38.6777 21.2578 38.543 21.8359 38.543C22.6914 38.543 23.3848 38.8184 23.916 39.3691C24.4512 39.9199 24.7402 40.6504 24.7832 41.5605L24.7891 41.8945C24.7891 42.5195 24.668 43.0781 24.4258 43.5703C24.1875 44.0625 23.8438 44.4434 23.3945 44.7129C22.9492 44.9824 22.4336 45.1172 21.8477 45.1172C20.9531 45.1172 20.2363 44.8203 19.6973 44.2266C19.1621 43.6289 18.8945 42.834 18.8945 41.8418V41.7715ZM20.3184 41.8945C20.3184 42.5469 20.4531 43.0586 20.7227 43.4297C20.9922 43.7969 21.3672 43.9805 21.8477 43.9805C22.3281 43.9805 22.7012 43.793 22.9668 43.418C23.2363 43.043 23.3711 42.4941 23.3711 41.7715C23.3711 41.1309 23.2324 40.623 22.9551 40.248C22.6816 39.873 22.3086 39.6855 21.8359 39.6855C21.3711 39.6855 21.002 39.8711 20.7285 40.2422C20.4551 40.6094 20.3184 41.1602 20.3184 41.8945ZM29.3125 39.9609C29.125 39.9297 28.9316 39.9141 28.7324 39.9141C28.0801 39.9141 27.6406 40.1641 27.4141 40.6641V45H25.9902V38.6602H27.3496L27.3848 39.3691C27.7285 38.8184 28.2051 38.543 28.8145 38.543C29.0176 38.543 29.1855 38.5703 29.3184 38.625L29.3125 39.9609ZM31.7266 45H30.3027V38.6602H31.7266V45ZM30.2148 37.0137C30.2148 36.7949 30.2832 36.6133 30.4199 36.4688C30.5605 36.3242 30.7598 36.252 31.0176 36.252C31.2754 36.252 31.4746 36.3242 31.6152 36.4688C31.7559 36.6133 31.8262 36.7949 31.8262 37.0137C31.8262 37.2285 31.7559 37.4082 31.6152 37.5527C31.4746 37.6934 31.2754 37.7637 31.0176 37.7637C30.7598 37.7637 30.5605 37.6934 30.4199 37.5527C30.2832 37.4082 30.2148 37.2285 30.2148 37.0137ZM35.0664 37.1191V38.6602H36.1855V39.7148H35.0664V43.2539C35.0664 43.4961 35.1133 43.6719 35.207 43.7812C35.3047 43.8867 35.4766 43.9395 35.7227 43.9395C35.8867 43.9395 36.0527 43.9199 36.2207 43.8809V44.9824C35.8965 45.0723 35.584 45.1172 35.2832 45.1172C34.1895 45.1172 33.6426 44.5137 33.6426 43.3066V39.7148H32.5996V38.6602H33.6426V37.1191H35.0664ZM40.0703 45.1172C39.168 45.1172 38.4355 44.834 37.873 44.2676C37.3145 43.6973 37.0352 42.9395 37.0352 41.9941V41.8184C37.0352 41.1855 37.1562 40.6211 37.3984 40.125C37.6445 39.625 37.9883 39.2363 38.4297 38.959C38.8711 38.6816 39.3633 38.543 39.9062 38.543C40.7695 38.543 41.4355 38.8184 41.9043 39.3691C42.377 39.9199 42.6133 40.6992 42.6133 41.707V42.2812H38.4707C38.5137 42.8047 38.6875 43.2188 38.9922 43.5234C39.3008 43.8281 39.6875 43.9805 40.1523 43.9805C40.8047 43.9805 41.3359 43.7168 41.7461 43.1895L42.5137 43.9219C42.2598 44.3008 41.9199 44.5957 41.4941 44.8066C41.0723 45.0137 40.5977 45.1172 40.0703 45.1172ZM39.9004 39.6855C39.5098 39.6855 39.1934 39.8223 38.9512 40.0957C38.7129 40.3691 38.5605 40.75 38.4941 41.2383H41.207V41.1328C41.1758 40.6562 41.0488 40.2969 40.8262 40.0547C40.6035 39.8086 40.2949 39.6855 39.9004 39.6855ZM47.043 39.9609C46.8555 39.9297 46.6621 39.9141 46.4629 39.9141C45.8105 39.9141 45.3711 40.1641 45.1445 40.6641V45H43.7207V38.6602H45.0801L45.1152 39.3691C45.459 38.8184 45.9355 38.543 46.5449 38.543C46.748 38.543 46.916 38.5703 47.0488 38.625L47.043 39.9609Z" fill="#8D8D8D"/>
</svg>
