<svg width="30" height="45" viewBox="0 0 30 45" fill="none" xmlns="http://www.w3.org/2000/svg">
<path d="M6.5 1.8999H23.5" stroke="#8D8D8D" stroke-width="3" stroke-miterlimit="10" stroke-linecap="round"/>
<path d="M6.5 9.8999H23.5" stroke="#8D8D8D" stroke-width="3" stroke-miterlimit="10" stroke-linecap="round"/>
<path d="M6.5 17.8999H14.5" stroke="#8D8D8D" stroke-width="3" stroke-miterlimit="10" stroke-linecap="round"/>
<path d="M2.54688 33.4688L5.00781 40.0078L7.46289 33.4688H9.37891V42H7.90234V39.1875L8.04883 35.4258L5.5293 42H4.46875L1.95508 35.4316L2.10156 39.1875V42H0.625V33.4688H2.54688ZM13.791 42.1172C12.8887 42.1172 12.1562 41.834 11.5938 41.2676C11.0352 40.6973 10.7559 39.9395 10.7559 38.9941V38.8184C10.7559 38.1855 10.877 37.6211 11.1191 37.125C11.3652 36.625 11.709 36.2363 12.1504 35.959C12.5918 35.6816 13.084 35.543 13.627 35.543C14.4902 35.543 15.1562 35.8184 15.625 36.3691C16.0977 36.9199 16.334 37.6992 16.334 38.707V39.2812H12.1914C12.2344 39.8047 12.4082 40.2188 12.7129 40.5234C13.0215 40.8281 13.4082 40.9805 13.873 40.9805C14.5254 40.9805 15.0566 40.7168 15.4668 40.1895L16.2344 40.9219C15.9805 41.3008 15.6406 41.5957 15.2148 41.8066C14.793 42.0137 14.3184 42.1172 13.791 42.1172ZM13.6211 36.6855C13.2305 36.6855 12.9141 36.8223 12.6719 37.0957C12.4336 37.3691 12.2812 37.75 12.2148 38.2383H14.9277V38.1328C14.8965 37.6562 14.7695 37.2969 14.5469 37.0547C14.3242 36.8086 14.0156 36.6855 13.6211 36.6855ZM18.7656 35.6602L18.8066 36.3926C19.2754 35.8262 19.8906 35.543 20.6523 35.543C21.9727 35.543 22.6445 36.2988 22.668 37.8105V42H21.2441V37.8926C21.2441 37.4902 21.1562 37.1934 20.9805 37.002C20.8086 36.8066 20.5254 36.709 20.1309 36.709C19.5566 36.709 19.1289 36.9688 18.8477 37.4883V42H17.4238V35.6602H18.7656ZM26.3418 39.9609L27.6309 35.6602H29.1484L26.6289 42.9609C26.2422 44.0273 25.5859 44.5605 24.6602 44.5605C24.4531 44.5605 24.2246 44.5254 23.9746 44.4551V43.3535L24.2441 43.3711C24.6035 43.3711 24.873 43.3047 25.0527 43.1719C25.2363 43.043 25.3809 42.8242 25.4863 42.5156L25.6914 41.9707L23.4648 35.6602H25L26.3418 39.9609Z" fill="#8D8D8D"/>
</svg>
