<svg width="25" height="47" viewBox="0 0 25 47" fill="none" xmlns="http://www.w3.org/2000/svg">
<path d="M4.12725 24.8999C7.72725 24.8999 15.4272 24.8999 19.1272 24.8999C20.3272 24.8999 21.2273 23.9999 21.2273 22.9999V10.9999C21.2273 10.6999 21.1273 10.3999 20.8273 10.1999L11.7273 2.8999L2.62725 10.2999C2.42725 10.4999 2.22725 10.6999 2.22725 10.9999C2.12725 12.7999 1.92725 19.6999 2.02725 22.9999C2.02725 24.0999 3.02725 24.8999 4.12725 24.8999Z" stroke="#8D8D8D" stroke-width="3" stroke-miterlimit="10"/>
<path d="M7.43164 46H5.95508V42.209H2.14062V46H0.658203V37.4688H2.14062V41.0195H5.95508V37.4688H7.43164V46ZM11.8438 46.1172C10.9414 46.1172 10.209 45.834 9.64648 45.2676C9.08789 44.6973 8.80859 43.9395 8.80859 42.9941V42.8184C8.80859 42.1855 8.92969 41.6211 9.17188 41.125C9.41797 40.625 9.76172 40.2363 10.2031 39.959C10.6445 39.6816 11.1367 39.543 11.6797 39.543C12.543 39.543 13.209 39.8184 13.6777 40.3691C14.1504 40.9199 14.3867 41.6992 14.3867 42.707V43.2812H10.2441C10.2871 43.8047 10.4609 44.2188 10.7656 44.5234C11.0742 44.8281 11.4609 44.9805 11.9258 44.9805C12.5781 44.9805 13.1094 44.7168 13.5195 44.1895L14.2871 44.9219C14.0332 45.3008 13.6934 45.5957 13.2676 45.8066C12.8457 46.0137 12.3711 46.1172 11.8438 46.1172ZM11.6738 40.6855C11.2832 40.6855 10.9668 40.8223 10.7246 41.0957C10.4863 41.3691 10.334 41.75 10.2676 42.2383H12.9805V42.1328C12.9492 41.6562 12.8223 41.2969 12.5996 41.0547C12.377 40.8086 12.0684 40.6855 11.6738 40.6855ZM16.8359 39.6602L16.877 40.3223C17.3223 39.8027 17.9316 39.543 18.7051 39.543C19.5527 39.543 20.1328 39.8672 20.4453 40.5156C20.9062 39.8672 21.5547 39.543 22.3906 39.543C23.0898 39.543 23.6094 39.7363 23.9492 40.123C24.293 40.5098 24.4688 41.0801 24.4766 41.834V46H23.0527V41.875C23.0527 41.4727 22.9648 41.1777 22.7891 40.9902C22.6133 40.8027 22.3223 40.709 21.916 40.709C21.5918 40.709 21.3262 40.7969 21.1191 40.9727C20.916 41.1445 20.7734 41.3711 20.6914 41.6523L20.6973 46H19.2734V41.8281C19.2539 41.082 18.873 40.709 18.1309 40.709C17.5605 40.709 17.1562 40.9414 16.918 41.4062V46H15.4941V39.6602H16.8359Z" fill="#8D8D8D"/>
</svg>
