<svg width="25" height="46" viewBox="0 0 25 46" fill="none" xmlns="http://www.w3.org/2000/svg">
<path d="M10.5 18.8999C15.1944 18.8999 19 15.0943 19 10.3999C19 5.70548 15.1944 1.8999 10.5 1.8999C5.80558 1.8999 2 5.70548 2 10.3999C2 15.0943 5.80558 18.8999 10.5 18.8999Z" stroke="#E29829" stroke-width="3" stroke-miterlimit="10"/>
<path d="M23.5 23.3999L17 16.8999" stroke="#E29829" stroke-width="3" stroke-miterlimit="10" stroke-linecap="round"/>
<path d="M9.6543 42.8027C9.6543 42.4277 9.52148 42.1387 9.25586 41.9355C8.99414 41.7324 8.51953 41.5273 7.83203 41.3203C7.14453 41.1133 6.59766 40.8828 6.19141 40.6289C5.41406 40.1406 5.02539 39.5039 5.02539 38.7188C5.02539 38.0312 5.30469 37.4648 5.86328 37.0195C6.42578 36.5742 7.1543 36.3516 8.04883 36.3516C8.64258 36.3516 9.17188 36.4609 9.63672 36.6797C10.1016 36.8984 10.4668 37.2109 10.7324 37.6172C10.998 38.0195 11.1309 38.4668 11.1309 38.959H9.6543C9.6543 38.5137 9.51367 38.166 9.23242 37.916C8.95508 37.6621 8.55664 37.5352 8.03711 37.5352C7.55273 37.5352 7.17578 37.6387 6.90625 37.8457C6.64062 38.0527 6.50781 38.3418 6.50781 38.7129C6.50781 39.0254 6.65234 39.2871 6.94141 39.498C7.23047 39.7051 7.70703 39.9082 8.37109 40.1074C9.03516 40.3027 9.56836 40.5273 9.9707 40.7812C10.373 41.0312 10.668 41.3203 10.8555 41.6484C11.043 41.9727 11.1367 42.3535 11.1367 42.791C11.1367 43.502 10.8633 44.0684 10.3164 44.4902C9.77344 44.9082 9.03516 45.1172 8.10156 45.1172C7.48438 45.1172 6.91602 45.0039 6.39648 44.7773C5.88086 44.5469 5.47852 44.2305 5.18945 43.8281C4.9043 43.4258 4.76172 42.957 4.76172 42.4219H6.24414C6.24414 42.9062 6.4043 43.2812 6.72461 43.5469C7.04492 43.8125 7.50391 43.9453 8.10156 43.9453C8.61719 43.9453 9.00391 43.8418 9.26172 43.6348C9.52344 43.4238 9.6543 43.1465 9.6543 42.8027ZM12.0332 41.7715C12.0332 41.1504 12.1562 40.5918 12.4023 40.0957C12.6484 39.5957 12.9941 39.2129 13.4395 38.9473C13.8848 38.6777 14.3965 38.543 14.9746 38.543C15.8301 38.543 16.5234 38.8184 17.0547 39.3691C17.5898 39.9199 17.8789 40.6504 17.9219 41.5605L17.9277 41.8945C17.9277 42.5195 17.8066 43.0781 17.5645 43.5703C17.3262 44.0625 16.9824 44.4434 16.5332 44.7129C16.0879 44.9824 15.5723 45.1172 14.9863 45.1172C14.0918 45.1172 13.375 44.8203 12.8359 44.2266C12.3008 43.6289 12.0332 42.834 12.0332 41.8418V41.7715ZM13.457 41.8945C13.457 42.5469 13.5918 43.0586 13.8613 43.4297C14.1309 43.7969 14.5059 43.9805 14.9863 43.9805C15.4668 43.9805 15.8398 43.793 16.1055 43.418C16.375 43.043 16.5098 42.4941 16.5098 41.7715C16.5098 41.1309 16.3711 40.623 16.0938 40.248C15.8203 39.873 15.4473 39.6855 14.9746 39.6855C14.5098 39.6855 14.1406 39.8711 13.8672 40.2422C13.5938 40.6094 13.457 41.1602 13.457 41.8945ZM12.8711 36.9961C12.8711 36.8008 12.9355 36.6367 13.0645 36.5039C13.1973 36.3711 13.3789 36.3047 13.6094 36.3047C13.8398 36.3047 14.0215 36.3711 14.1543 36.5039C14.2871 36.6367 14.3535 36.8008 14.3535 36.9961C14.3535 37.1914 14.2871 37.3555 14.1543 37.4883C14.0215 37.6211 13.8398 37.6875 13.6094 37.6875C13.3789 37.6875 13.1973 37.6211 13.0645 37.4883C12.9355 37.3555 12.8711 37.1914 12.8711 36.9961ZM15.5488 37.002C15.5488 36.8066 15.6133 36.6426 15.7422 36.5098C15.875 36.377 16.0566 36.3105 16.2871 36.3105C16.5176 36.3105 16.6992 36.377 16.832 36.5098C16.9648 36.6426 17.0312 36.8066 17.0312 37.002C17.0312 37.1973 16.9648 37.3613 16.832 37.4941C16.6992 37.627 16.5176 37.6934 16.2871 37.6934C16.0566 37.6934 15.875 37.627 15.7422 37.4941C15.6133 37.3613 15.5488 37.1973 15.5488 37.002ZM21.1914 42.2812L20.5586 42.9316V45H19.1348V36H20.5586V41.1914L21.0039 40.6348L22.7559 38.6602H24.4668L22.1113 41.3027L24.7188 45H23.0723L21.1914 42.2812Z" fill="#E29829"/>
</svg>
