<svg width="23" height="26" viewBox="0 0 23 26" fill="none" xmlns="http://www.w3.org/2000/svg">
<path fill-rule="evenodd" clip-rule="evenodd" d="M9.08528 0.435059L12.4776 2.63028L13.2338 3.11967L12.8258 3.92277L10.9801 7.55577L9.19701 6.64988L9.97303 5.12242C5.45228 5.85286 2 9.77344 2 14.5003C2 19.7471 6.25329 24.0003 11.5 24.0003C16.7467 24.0003 21 19.7471 21 14.5003H23C23 20.8516 17.8513 26.0003 11.5 26.0003C5.14873 26.0003 0 20.8516 0 14.5003C0 8.79363 4.15672 4.05777 9.6076 3.15531L7.9987 2.11415L9.08528 0.435059ZM7.75781 17.9995H9.16895V10.8804H9.01758L6.07324 11.9351V13.0825L7.75781 12.5601V17.9995ZM12.1035 10.8901L11.6934 14.5034L12.8164 14.7817L12.9531 14.6548C13.1615 14.479 13.4333 14.3911 13.7686 14.3911C14.1331 14.3911 14.4147 14.4985 14.6133 14.7134C14.8118 14.9282 14.9111 15.2375 14.9111 15.6411C14.9111 16.061 14.8249 16.3866 14.6523 16.6177C14.4798 16.8455 14.234 16.9595 13.915 16.9595C13.6286 16.9595 13.3958 16.8781 13.2168 16.7153C13.041 16.5493 12.9385 16.3182 12.9092 16.022H11.5127C11.5257 16.4256 11.638 16.7853 11.8496 17.1011C12.0645 17.4168 12.3558 17.6626 12.7236 17.8384C13.0915 18.0109 13.4902 18.0972 13.9199 18.0972C14.4115 18.0972 14.8379 17.9979 15.1992 17.7993C15.5605 17.5975 15.8372 17.3159 16.0293 16.9546C16.2246 16.59 16.3223 16.1782 16.3223 15.7192C16.3223 14.964 16.1302 14.3765 15.7461 13.9565C15.362 13.5366 14.8314 13.3267 14.1543 13.3267C13.7767 13.3267 13.4202 13.4162 13.085 13.5952L13.2607 12.0669H16.0879V10.8901H12.1035Z" fill="white"/>
</svg>
