<svg width="36" height="36" viewBox="0 0 36 36" fill="none" xmlns="http://www.w3.org/2000/svg">
<path d="M24.8815 26.643C20.3657 30.2807 13.7394 30.0028 9.54601 25.8094C5.05498 21.3184 5.05498 14.037 9.54601 9.54594C13.7384 5.35353 20.3624 5.07477 24.8782 8.70965C20.9751 11.4229 19.199 14.7488 19.4187 18.1242C19.6309 21.3856 21.6922 24.3939 24.8815 26.643Z" stroke="white" stroke-width="2"/>
<circle cx="27.5771" cy="13.4348" r="1.5" transform="rotate(45 27.5771 13.4348)" fill="white"/>
<circle cx="11.1211" cy="18.1213" r="1.5" transform="rotate(45 11.1211 18.1213)" fill="white"/>
<circle cx="15.1211" cy="12.1213" r="1.5" transform="rotate(45 15.1211 12.1213)" fill="white"/>
<circle cx="26.1631" cy="19.7991" r="2" transform="rotate(45 26.1631 19.7991)" fill="white"/>
<circle cx="31.8203" cy="18.3849" r="1" transform="rotate(45 31.8203 18.3849)" fill="white"/>
<circle cx="16.1211" cy="24.1213" r="1.5" transform="rotate(45 16.1211 24.1213)" fill="white"/>
</svg>
