<svg width="11" height="15" viewBox="0 0 11 15" fill="none" xmlns="http://www.w3.org/2000/svg">
<path d="M11 4.6605C11 6.01379 10.4972 7.57338 9.50037 9.31451C9.17097 9.89214 9.04961 10.3707 8.90225 10.9236C8.72022 11.6168 8.52084 12.4007 7.92273 13.5477C7.47197 14.4141 6.22372 15 4.83678 15H4.81945C4.72409 15 4.62874 15 4.53339 14.9917C3.09444 14.901 2.02823 14.1996 1.61215 13.0608C1.43878 12.7803 0.0518376 10.3872 0.962017 9.21549C1.38677 8.67087 2.14092 8.51409 3.2158 8.74514C3.80525 8.86891 3.98728 9.51255 4.17799 10.1892C4.23 10.379 4.37736 10.9154 4.49872 11.0804C4.83678 11.0804 4.98415 10.9979 5.01015 10.9566C5.01882 10.9401 5.19219 10.6431 4.43804 9.57857C4.27334 9.34752 4.31668 9.0422 4.54206 8.86066C5.02749 8.47283 5.92033 7.47436 5.61694 6.88023C5.54759 6.75645 5.2442 6.5089 4.89746 6.5089H4.88879C4.43804 6.51715 4.10864 6.99575 3.91793 7.40009C3.82258 7.58988 3.62321 7.71366 3.39783 7.71366C3.17245 7.71366 2.96441 7.58988 2.87773 7.39184C2.86906 7.37534 1.84619 5.27113 2.57434 3.69503C2.8864 3.01839 3.45851 2.54803 4.27334 2.30048C4.81945 2.13544 6.63114 1.90439 7.82737 2.96062C8.75489 3.77755 8.9976 5.09784 8.54685 6.87198C8.46883 7.16904 8.15677 7.35058 7.85338 7.27632C7.54998 7.20205 7.35928 6.91324 7.42863 6.61617C7.77536 5.24637 7.64534 4.28916 7.03855 3.7528C6.30174 3.10091 4.98415 3.21643 4.6114 3.33196C4.10864 3.48874 3.79658 3.73629 3.61454 4.12413C3.36316 4.66875 3.44117 5.3784 3.5712 5.93127C4.03062 5.51043 4.51605 5.40316 4.87146 5.39491H4.89746C5.70362 5.39491 6.39709 5.90652 6.64847 6.38512C7.23792 7.53212 6.2584 8.74514 5.65161 9.34752C6.21505 10.2635 6.32774 10.9649 5.99835 11.5012C5.58226 12.1779 4.64608 12.1696 4.4207 12.1614C3.55386 12.2026 3.27647 11.1959 3.06843 10.4615C3.03376 10.3212 2.92107 9.9334 2.84306 9.77661C2.34896 9.68584 1.99355 9.71885 1.88087 9.85913C1.58614 10.2305 2.04556 11.592 2.63501 12.5822L2.65235 12.607L2.66102 12.6317C2.81705 13.0691 3.28514 13.8117 4.6114 13.9025C5.5996 13.9685 6.62247 13.5889 6.89986 13.0608C7.4373 12.0294 7.628 11.3114 7.7927 10.6843V10.6678C7.94006 10.0984 8.09609 9.5043 8.49484 8.79465C9.83844 6.45939 10.1938 4.47896 9.51771 3.0844C8.9976 2.00342 7.9574 1.45055 7.15991 1.29376C5.04482 0.881171 3.47585 1.12047 2.47898 2.01992C0.745308 3.57126 1.20473 6.64093 1.2134 6.67393C1.23941 6.81422 1.19606 6.96275 1.10938 7.07827C1.0227 7.1938 0.884002 7.27632 0.736639 7.29282C0.589277 7.31757 0.441915 7.28457 0.311889 7.1938C0.190532 7.11128 0.103848 6.97925 0.0778427 6.83072C0.0518375 6.68219 -0.485602 3.17517 1.67282 1.21949C2.95574 0.0642429 4.88012 -0.274081 7.38529 0.221027C8.4515 0.427322 9.84711 1.16998 10.5492 2.6223C10.844 3.23293 11 3.91783 11 4.6605Z" fill="#F1F1F1"/>
</svg>
