<svg width="18" height="11" viewBox="0 0 18 11" fill="none" xmlns="http://www.w3.org/2000/svg">
<g clip-path="url(#clip0)">
<path d="M17.8834 5.16457C17.7252 4.95219 13.8932 0 8.99941 0C4.10566 0 0.273633 4.95219 0.111914 5.16457C-0.0392578 5.36347 -0.0392578 5.63653 0.111914 5.83543C0.273633 6.04781 4.10566 11 8.9959 11C13.8861 11 17.7217 6.04781 17.8799 5.83543C18.0381 5.63653 18.0381 5.36347 17.8834 5.16457ZM8.99941 9.86393C5.3959 9.86393 2.27402 6.57708 1.34941 5.50169C2.27051 4.42292 5.38535 1.13944 8.99941 1.13944C12.6029 1.13944 15.7248 4.42629 16.6494 5.50169C15.7283 6.57708 12.61 9.86393 8.99941 9.86393Z" fill="#F1F1F1"/>
<path d="M9.00005 2.08667C7.03833 2.08667 5.43872 3.61716 5.43872 5.50163C5.43872 7.38609 7.03833 8.91321 9.00005 8.91321C10.9618 8.91321 12.5614 7.38272 12.5614 5.50163C12.5614 3.62053 10.9618 2.08667 9.00005 2.08667ZM9.00005 7.77714C7.69224 7.77714 6.627 6.75569 6.627 5.50163C6.627 4.24756 7.69224 3.22611 9.00005 3.22611C10.3079 3.22611 11.3731 4.24756 11.3731 5.50163C11.3731 6.75569 10.3079 7.77714 9.00005 7.77714Z" fill="#F1F1F1"/>
</g>
<defs>
<clipPath id="clip0">
<rect width="18" height="11" fill="white"/>
</clipPath>
</defs>
</svg>
