<svg width="47" height="36" viewBox="0 0 47 36" fill="none" xmlns="http://www.w3.org/2000/svg">
<path d="M8.84375 33.6772C8.84375 33.5018 8.78109 33.3651 8.65576 33.2671C8.53271 33.1691 8.3151 33.0677 8.00293 32.9629C7.69076 32.8581 7.43555 32.7567 7.2373 32.6587C6.59245 32.342 6.27002 31.9067 6.27002 31.353C6.27002 31.0773 6.34977 30.8346 6.50928 30.625C6.67106 30.4131 6.89893 30.249 7.19287 30.1328C7.48682 30.0143 7.81722 29.9551 8.18408 29.9551C8.54183 29.9551 8.86198 30.0189 9.14453 30.1465C9.42936 30.2741 9.65039 30.4564 9.80762 30.6934C9.96484 30.9281 10.0435 31.1969 10.0435 31.5H8.84717C8.84717 31.2972 8.78451 31.14 8.65918 31.0283C8.53613 30.9167 8.36865 30.8608 8.15674 30.8608C7.94255 30.8608 7.77279 30.9087 7.64746 31.0044C7.52441 31.0978 7.46289 31.2174 7.46289 31.3633C7.46289 31.4909 7.53125 31.6071 7.66797 31.7119C7.80469 31.8145 8.04508 31.9215 8.38916 32.0332C8.73324 32.1426 9.01579 32.2611 9.23682 32.3887C9.77458 32.6986 10.0435 33.1258 10.0435 33.6704C10.0435 34.1056 9.87939 34.4474 9.55127 34.6958C9.22314 34.9442 8.77311 35.0684 8.20117 35.0684C7.79785 35.0684 7.43213 34.9966 7.104 34.853C6.77816 34.7072 6.53206 34.509 6.36572 34.2583C6.20166 34.0054 6.11963 33.7148 6.11963 33.3867H7.32275C7.32275 33.6533 7.39111 33.8504 7.52783 33.978C7.66683 34.1034 7.89128 34.166 8.20117 34.166C8.39941 34.166 8.5555 34.1239 8.66943 34.0396C8.78564 33.953 8.84375 33.8322 8.84375 33.6772ZM13.6084 33.3115V35H12.4087V30.0234H14.3945C14.7751 30.0234 15.1112 30.0941 15.4028 30.2354C15.6968 30.3743 15.9235 30.5737 16.083 30.8335C16.2448 31.091 16.3257 31.3838 16.3257 31.7119C16.3257 32.1973 16.1514 32.5858 15.8027 32.8774C15.4564 33.1668 14.9801 33.3115 14.374 33.3115H13.6084ZM13.6084 32.3853H14.3945C14.627 32.3853 14.8035 32.3271 14.9243 32.2109C15.0474 32.0947 15.1089 31.9307 15.1089 31.7188C15.1089 31.4863 15.0462 31.3006 14.9209 31.1616C14.7956 31.0226 14.6247 30.952 14.4082 30.9497H13.6084V32.3853ZM20.9365 34.0703H19.2925L19.0054 35H17.7236L19.5488 30.0234H20.6768L22.5156 35H21.2271L20.9365 34.0703ZM19.5796 33.144H20.6494L20.1128 31.418L19.5796 33.144ZM26.4805 33.2432H25.8311V35H24.6313V30.0234H26.5898C27.18 30.0234 27.6414 30.1545 27.9741 30.4165C28.3068 30.6785 28.4731 31.0488 28.4731 31.5273C28.4731 31.8737 28.4025 32.1608 28.2612 32.3887C28.1222 32.6165 27.9035 32.8011 27.605 32.9424L28.644 34.9487V35H27.3589L26.4805 33.2432ZM25.8311 32.3169H26.5898C26.8177 32.3169 26.9886 32.2576 27.1025 32.1392C27.2188 32.0184 27.2769 31.8509 27.2769 31.6367C27.2769 31.4225 27.2188 31.255 27.1025 31.1343C26.9863 31.0112 26.8154 30.9497 26.5898 30.9497H25.8311V32.3169ZM33.7744 34.0703H32.1304L31.8433 35H30.5615L32.3867 30.0234H33.5146L35.3535 35H34.0649L33.7744 34.0703ZM32.4175 33.144H33.4873L32.9507 31.418L32.4175 33.144ZM40.9658 30.9497H39.4722V35H38.2725V30.9497H36.8062V30.0234H40.9658V30.9497Z" fill="#8D8D8D"/>
<path fill-rule="evenodd" clip-rule="evenodd" d="M23.5 25C20.1925 24.28 10 18.64 10 8.5C10 6.92588 10.4953 5.39166 11.4157 4.11467C12.3361 2.83768 13.635 1.88266 15.1283 1.38488C16.6216 0.887095 18.2337 0.871797 19.7363 1.34115C21.2388 1.8105 22.5555 2.74071 23.5 4C24.4445 2.74071 25.7612 1.8105 27.2637 1.34115C28.7663 0.871797 30.3784 0.887095 31.8717 1.38488C33.365 1.88266 34.6639 2.83768 35.5843 4.11467C36.5047 5.39166 37 6.92588 37 8.5C37 18.64 26.8075 24.28 23.5 25ZM23.5 22C28.18 20.605 34 14.7925 34 8.5C34 7.30653 33.5259 6.16193 32.682 5.31802C31.8381 4.47411 30.6935 4 29.5 4C27.5425 4 25.543 5.2495 23.5 7.75C21.457 5.2495 19.4575 4 17.5 4C16.3065 4 15.1619 4.47411 14.318 5.31802C13.4741 6.16193 13 7.30653 13 8.5C13 14.7925 18.82 20.605 23.5 22Z" fill="#8D8D8D"/>
</svg>
