<svg width="16" height="14" viewBox="0 0 16 14" fill="none" xmlns="http://www.w3.org/2000/svg">
<path fillRule="evenodd" clipRule="evenodd" d="M7.875 14C5.94563 13.58 0 10.29 0 4.375C0 3.45676 0.288913 2.5618 0.825815 1.81689C1.36272 1.07198 2.12039 0.514882 2.9915 0.224511C3.86262 -0.065861 4.80301 -0.074785 5.67948 0.199003C6.55595 0.472791 7.32406 1.01541 7.875 1.75C8.42594 1.01541 9.19405 0.472791 10.0705 0.199003C10.947 -0.074785 11.8874 -0.065861 12.7585 0.224511C13.6296 0.514882 14.3873 1.07198 14.9242 1.81689C15.4611 2.5618 15.75 3.45676 15.75 4.375C15.75 10.29 9.80438 13.58 7.875 14Z" fill="#E15353"/>
</svg>
