<svg width="31" height="31" viewBox="0 0 31 31" fill="none" xmlns="http://www.w3.org/2000/svg">
<circle cx="15.5" cy="15.5" r="15.5" fill="black" fill-opacity="0.8"/>
<path fill-rule="evenodd" clip-rule="evenodd" d="M20.4814 16.2174C20.862 16.2174 21.2271 16.3686 21.4962 16.6378C21.7654 16.9069 21.9166 17.272 21.9166 17.6526V20.523C21.9166 20.9036 21.7654 21.2687 21.4962 21.5378C21.2271 21.807 20.862 21.9582 20.4814 21.9582C20.1008 21.9582 19.7357 21.807 19.4666 21.5378C19.1974 21.2687 19.0462 20.9036 19.0462 20.523V14.0647C19.0462 13.1131 18.6682 12.2005 17.9953 11.5276C17.3225 10.8547 16.4098 10.4767 15.4583 10.4767C14.5067 10.4767 13.5941 10.8547 12.9212 11.5276C12.2483 12.2005 11.8703 13.1131 11.8703 14.0647V20.523C11.8703 20.9036 11.7191 21.2687 11.4499 21.5378C11.1808 21.807 10.8157 21.9582 10.4351 21.9582C10.0545 21.9582 9.68943 21.807 9.42028 21.5378C9.15113 21.2687 8.99992 20.9036 8.99992 20.523V17.6526C8.99992 17.272 9.15113 16.9069 9.42028 16.6378C9.68943 16.3686 10.0545 16.2174 10.4351 16.2174V14.0647C10.4351 13.405 10.565 12.7518 10.8175 12.1424C11.0699 11.5329 11.4399 10.9792 11.9064 10.5127C12.3728 10.0463 12.9265 9.6763 13.536 9.42387C14.1454 9.17143 14.7986 9.0415 15.4583 9.0415C16.1179 9.0415 16.7711 9.17143 17.3805 9.42387C17.99 9.6763 18.5437 10.0463 19.0102 10.5127C19.4766 10.9792 19.8466 11.5329 20.099 12.1424C20.3515 12.7518 20.4814 13.405 20.4814 14.0647V16.2174Z" fill="white"/>
</svg>
