<svg width="9" height="9" viewBox="0 0 9 9" fill="none" xmlns="http://www.w3.org/2000/svg">
<path fill-rule="evenodd" clip-rule="evenodd" d="M7.87446 4.98611C8.13231 4.98611 8.3796 5.08854 8.56192 5.27087C8.74425 5.4532 8.84668 5.70048 8.84668 5.95833V7.90278C8.84668 8.16063 8.74425 8.40792 8.56192 8.59024C8.3796 8.77257 8.13231 8.875 7.87446 8.875C7.61661 8.875 7.36932 8.77257 7.18699 8.59024C7.00467 8.40792 6.90224 8.16063 6.90224 7.90278V3.52778C6.90224 2.88315 6.64616 2.26493 6.19034 1.80912C5.73452 1.3533 5.1163 1.09722 4.47168 1.09722C3.82706 1.09722 3.20883 1.3533 2.75302 1.80912C2.2972 2.26493 2.04112 2.88315 2.04112 3.52778V7.90278C2.04112 8.16063 1.93869 8.40792 1.75637 8.59024C1.57404 8.77257 1.32675 8.875 1.0689 8.875C0.811053 8.875 0.563764 8.77257 0.381437 8.59024C0.19911 8.40792 0.0966797 8.16063 0.0966797 7.90278V5.95833C0.0966797 5.70048 0.19911 5.4532 0.381437 5.27087C0.563764 5.08854 0.811053 4.98611 1.0689 4.98611V3.52778C1.0689 3.08092 1.15692 2.63844 1.32792 2.22559C1.49893 1.81275 1.74958 1.43763 2.06555 1.12165C2.38153 0.805673 2.75665 0.555027 3.16949 0.384021C3.58234 0.213015 4.02482 0.125 4.47168 0.125C4.91854 0.125 5.36102 0.213015 5.77387 0.384021C6.18671 0.555027 6.56183 0.805673 6.87781 1.12165C7.19378 1.43763 7.44443 1.81275 7.61544 2.22559C7.78644 2.63844 7.87446 3.08092 7.87446 3.52778V4.98611Z" fill="white"/>
</svg>
