<svg width="26" height="36" viewBox="0 0 26 36" fill="none" xmlns="http://www.w3.org/2000/svg">
<path d="M7.79688 35H6.604V32.9219H4.83691V35H3.63721V30.0234H4.83691V31.999H6.604V30.0234H7.79688V35ZM13.3955 32.8911H11.5088V34.0771H13.7373V35H10.3091V30.0234H13.7441V30.9497H11.5088V31.999H13.3955V32.8911ZM17.5518 30.0234L18.6626 33.4858L19.77 30.0234H21.3491V35H20.146V33.8379L20.2622 31.459L19.0591 35H18.2661L17.0596 31.4556L17.1758 33.8379V35H15.9761V30.0234H17.5518Z" fill="#FEBA35"/>
<path d="M12.5 3.55694L2.77778 11.3347V22.2222H9.72222V16.6667H15.2778V22.2222H22.2222V12.0028C22.2223 11.7945 22.1755 11.5889 22.0854 11.4011C21.9952 11.2133 21.864 11.0482 21.7014 10.9181L12.5 3.55694ZM12.5 0L23.4361 8.75C23.9238 9.14011 24.3175 9.63485 24.5882 10.1976C24.8589 10.7604 24.9997 11.3769 25 12.0014V22.2222C25 22.9589 24.7073 23.6655 24.1864 24.1864C23.6655 24.7073 22.9589 25 22.2222 25H2.77778C2.04107 25 1.33453 24.7073 0.813592 24.1864C0.292658 23.6655 0 22.9589 0 22.2222V11.3347C5.19412e-05 10.9184 0.0936926 10.5074 0.273998 10.1321C0.454303 9.75682 0.716659 9.42688 1.04167 9.16667L12.5 0Z" fill="#FEBA35"/>
</svg>
