<svg width="142" height="38" viewBox="0 0 142 38" fill="none" xmlns="http://www.w3.org/2000/svg">
<path d="M34.6383 36.3994H2.03755C0.916896 36.3994 0 35.4894 0 34.3772V2.02219C0 0.909985 0.916896 0 2.03755 0H34.6383C35.7589 0 36.6758 0.909985 36.6758 2.02219V34.3772C36.6758 35.4894 35.7589 36.3994 34.6383 36.3994Z" fill="#E29829"/>
<path d="M23.6354 24.3508L20.8847 27.3503V33.2989H17.3529V12.6389H20.8847V22.5476L29.8329 12.6389H34.4683L26.0295 21.7725L34.5532 33.3158H30.1216L23.6354 24.3508Z" fill="white"/>
<path d="M43.6205 33.3318C40.6491 33.3318 38.9002 31.1411 38.9002 28.3943V20.5752H41.8716V27.8551C41.8716 29.3886 42.5848 30.6861 44.3846 30.6861C46.0995 30.6861 46.9994 29.5402 46.9994 27.9056V20.5752H49.9709V30.703C49.9709 31.7141 50.0558 32.5061 50.1067 32.9611H47.2541C47.2032 32.6746 47.1523 32.1017 47.1523 31.5793C46.541 32.7252 45.0807 33.3318 43.6205 33.3318Z" fill="white"/>
<path d="M53.8253 32.9781V14.5593H56.7967V32.9781H53.8253Z" fill="white"/>
<path d="M64.4034 20.5921H67.0013V23.221H64.4034V28.9674C64.4034 30.0627 64.8959 30.5177 65.9995 30.5177C66.407 30.5177 66.8994 30.4335 67.0183 30.4166V32.8601C66.8315 32.9443 66.2712 33.1466 65.2015 33.1466C62.8923 33.1466 61.466 31.7647 61.466 29.4561V23.221H59.1568V20.5921H59.802C61.1434 20.5921 61.7207 19.7496 61.7207 18.6542V16.8005H64.4204V20.5921H64.4034Z" fill="white"/>
<path d="M74.6591 33.3318C71.6877 33.3318 69.9388 31.1411 69.9388 28.3943V20.5752H72.9102V27.8551C72.9102 29.3886 73.6234 30.6861 75.4232 30.6861C77.1381 30.6861 78.038 29.5402 78.038 27.9056V20.5752H81.0095V30.703C81.0095 31.7141 81.0944 32.5061 81.1453 32.9611H78.2927C78.2418 32.6746 78.1909 32.1017 78.1909 31.5793C77.5796 32.7252 76.1193 33.3318 74.6591 33.3318Z" fill="white"/>
<path d="M92.182 23.5072C91.8424 23.4566 91.5198 23.4229 91.2141 23.4229C88.9049 23.4229 87.8522 24.7542 87.8522 27.0629V32.9609H84.8808V20.575H87.7843V22.5803C88.3785 21.2322 89.7539 20.4402 91.4009 20.4402C91.7575 20.4402 92.0631 20.4907 92.1989 20.5244V23.5072H92.182Z" fill="white"/>
<path d="M94.6611 37.8144V20.5921H97.5306V22.2773C98.1419 21.2156 99.5851 20.3225 101.504 20.3225C105.188 20.3225 107.277 23.1199 107.277 26.7935C107.277 30.5009 105.002 33.3151 101.402 33.3151C99.6021 33.3151 98.2437 32.5568 97.6155 31.6131V37.8482H94.6611V37.8144ZM100.943 22.9345C98.9908 22.9345 97.5815 24.468 97.5815 26.7767C97.5815 29.1359 98.9908 30.6694 100.943 30.6694C102.913 30.6694 104.305 29.1359 104.305 26.7767C104.305 24.4511 102.947 22.9345 100.943 22.9345Z" fill="white"/>
<path d="M110.146 32.9781V14.5593H113.118V32.9781H110.146Z" fill="white"/>
<path d="M119.91 25.8836L123.119 25.3949C123.832 25.2938 124.036 24.9399 124.036 24.5017C124.036 23.4569 123.323 22.6144 121.676 22.6144C120.113 22.6144 119.247 23.6086 119.112 24.8556L116.395 24.249C116.633 22.1088 118.568 20.2046 121.659 20.2046C125.496 20.2046 126.973 22.3616 126.973 24.8388V30.9896C126.973 32.1018 127.109 32.8433 127.126 32.9781H124.358C124.324 32.8938 124.222 32.3883 124.222 31.394C123.628 32.3377 122.406 33.3488 120.368 33.3488C117.753 33.3488 116.14 31.5626 116.14 29.6078C116.14 27.4002 117.787 26.1869 119.91 25.8836ZM124.036 27.8384V27.2823L120.776 27.7709C119.859 27.9226 119.112 28.4282 119.112 29.4561C119.112 30.2987 119.757 31.057 120.928 31.057C122.609 31.0402 124.036 30.265 124.036 27.8384Z" fill="white"/>
<path d="M130.861 38L133.867 31.5121L128.535 20.5923H131.897L135.48 28.4283L138.842 20.5923H142L134.054 38H130.861Z" fill="white"/>
</svg>
