<svg width="25" height="35" viewBox="0 0 25 35" fill="none" xmlns="http://www.w3.org/2000/svg">
<path d="M2.19141 29.0234L3.30225 32.4858L4.40967 29.0234H5.98877V34H4.78564V32.8379L4.90186 30.459L3.69873 34H2.90576L1.69922 30.4556L1.81543 32.8379V34H0.615723V29.0234H2.19141ZM11.5908 31.8911H9.7041V33.0771H11.9326V34H8.50439V29.0234H11.9395V29.9497H9.7041V30.999H11.5908V31.8911ZM18.3276 34H17.1348L15.3711 30.9033V34H14.1714V29.0234H15.3711L17.1313 32.1201V29.0234H18.3276V34ZM22.5625 31.1836L23.4785 29.0234H24.7739L23.1709 32.2124V34H21.9541V32.2124L20.3545 29.0234H21.6431L22.5625 31.1836Z" fill="#FEBA35"/>
<path d="M0 1C0 0.447715 0.447715 0 1 0H14.1515C14.7038 0 15.1515 0.447715 15.1515 1V2C15.1515 2.55228 14.7038 3 14.1515 3H1C0.447715 3 0 2.55228 0 2V1Z" fill="#FEBA35"/>
<path d="M0 15C0 14.4477 0.447715 14 1 14H24C24.5523 14 25 14.4477 25 15V16C25 16.5523 24.5523 17 24 17H1C0.447716 17 0 16.5523 0 16V15Z" fill="#FEBA35"/>
<path d="M9.84863 22C9.84863 21.4477 10.2963 21 10.8486 21H24.0001C24.5524 21 25.0001 21.4477 25.0001 22V23C25.0001 23.5523 24.5524 24 24.0001 24H10.8486C10.2963 24 9.84863 23.5523 9.84863 23V22Z" fill="#FEBA35"/>
<rect y="7" width="25" height="3" rx="1" fill="#FEBA35"/>
</svg>
