<svg width="25" height="36" viewBox="0 0 25 36" fill="none" xmlns="http://www.w3.org/2000/svg">
<path d="M6.84668 33.6772C6.84668 33.5018 6.78402 33.3651 6.65869 33.2671C6.53564 33.1691 6.31803 33.0677 6.00586 32.9629C5.69368 32.8581 5.43848 32.7567 5.24023 32.6587C4.59538 32.342 4.27295 31.9067 4.27295 31.353C4.27295 31.0773 4.3527 30.8346 4.51221 30.625C4.67399 30.4131 4.90186 30.249 5.1958 30.1328C5.48975 30.0143 5.82015 29.9551 6.18701 29.9551C6.54476 29.9551 6.86491 30.0189 7.14746 30.1465C7.43229 30.2741 7.65332 30.4564 7.81055 30.6934C7.96777 30.9281 8.04639 31.1969 8.04639 31.5H6.8501C6.8501 31.2972 6.78743 31.14 6.66211 31.0283C6.53906 30.9167 6.37158 30.8608 6.15967 30.8608C5.94548 30.8608 5.77572 30.9087 5.65039 31.0044C5.52734 31.0978 5.46582 31.2174 5.46582 31.3633C5.46582 31.4909 5.53418 31.6071 5.6709 31.7119C5.80762 31.8145 6.04801 31.9215 6.39209 32.0332C6.73617 32.1426 7.01872 32.2611 7.23975 32.3887C7.77751 32.6986 8.04639 33.1258 8.04639 33.6704C8.04639 34.1056 7.88232 34.4474 7.5542 34.6958C7.22607 34.9442 6.77604 35.0684 6.2041 35.0684C5.80078 35.0684 5.43506 34.9966 5.10693 34.853C4.78109 34.7072 4.53499 34.509 4.36865 34.2583C4.20459 34.0054 4.12256 33.7148 4.12256 33.3867H5.32568C5.32568 33.6533 5.39404 33.8504 5.53076 33.978C5.66976 34.1034 5.89421 34.166 6.2041 34.166C6.40234 34.166 6.55843 34.1239 6.67236 34.0396C6.78857 33.953 6.84668 33.8322 6.84668 33.6772ZM14.626 32.6143C14.626 33.0996 14.536 33.5291 14.356 33.9028C14.1759 34.2765 13.9196 34.5648 13.5869 34.7676C13.2565 34.9681 12.8794 35.0684 12.4556 35.0684C12.0317 35.0684 11.6558 34.9715 11.3276 34.7778C10.9995 34.5819 10.7432 34.3027 10.5586 33.9404C10.3763 33.5781 10.2806 33.1623 10.2715 32.6929V32.4126C10.2715 31.925 10.3604 31.4954 10.5381 31.124C10.7181 30.7503 10.9744 30.4621 11.3071 30.2593C11.6421 30.0565 12.0226 29.9551 12.4487 29.9551C12.8703 29.9551 13.2463 30.0553 13.5767 30.2559C13.9071 30.4564 14.1634 30.7424 14.3457 31.1138C14.5303 31.4829 14.6237 31.9067 14.626 32.3853V32.6143ZM13.4058 32.4058C13.4058 31.9113 13.3226 31.5365 13.1562 31.2812C12.9922 31.0238 12.7563 30.895 12.4487 30.895C11.8472 30.895 11.5293 31.3462 11.4951 32.2485L11.4917 32.6143C11.4917 33.1019 11.5726 33.4767 11.7344 33.7388C11.8962 34.0008 12.1366 34.1318 12.4556 34.1318C12.7586 34.1318 12.9922 34.0031 13.1562 33.7456C13.3203 33.4881 13.4035 33.1178 13.4058 32.6348V32.4058ZM11.0337 29.2749C11.0337 29.1496 11.0827 29.0425 11.1807 28.9536C11.2809 28.8647 11.404 28.8203 11.5498 28.8203C11.6956 28.8203 11.8175 28.8647 11.9155 28.9536C12.0158 29.0425 12.0659 29.1496 12.0659 29.2749C12.0659 29.4002 12.0158 29.5073 11.9155 29.5962C11.8175 29.6851 11.6956 29.7295 11.5498 29.7295C11.404 29.7295 11.2809 29.6851 11.1807 29.5962C11.0827 29.5073 11.0337 29.4002 11.0337 29.2749ZM12.8076 29.2749C12.8076 29.1496 12.8566 29.0425 12.9546 28.9536C13.0549 28.8647 13.1779 28.8203 13.3237 28.8203C13.4696 28.8203 13.5915 28.8647 13.6895 28.9536C13.7897 29.0425 13.8398 29.1496 13.8398 29.2749C13.8398 29.4002 13.7897 29.5073 13.6895 29.5962C13.5915 29.6851 13.4696 29.7295 13.3237 29.7295C13.1779 29.7295 13.0549 29.6851 12.9546 29.5962C12.8566 29.5073 12.8076 29.4002 12.8076 29.2749ZM18.6865 33.1475L18.1943 33.6875V35H16.9946V30.0234H18.1943V32.2178L18.6113 31.5854L19.6846 30.0234H21.168L19.4863 32.2246L21.168 35H19.7461L18.6865 33.1475Z" fill="#8D8D8D"/>
<path fill-rule="evenodd" clip-rule="evenodd" d="M17.9063 16.1227L24.631 22.8474C24.8674 23.0839 25.0001 23.4046 25 23.739C24.9999 24.0734 24.8669 24.394 24.6304 24.6304C24.3939 24.8668 24.0731 24.9995 23.7388 24.9994C23.4044 24.9993 23.0837 24.8663 22.8474 24.6298L16.1227 17.9051C14.1124 19.4621 11.5845 20.1948 9.05317 19.9542C6.52185 19.7135 4.17728 18.5176 2.49642 16.6097C0.815558 14.7017 -0.0753278 12.2251 0.00499518 9.68366C0.0853182 7.1422 1.13082 4.72679 2.9288 2.9288C4.72679 1.13082 7.1422 0.0853182 9.68366 0.00499518C12.2251 -0.0753278 14.7017 0.815558 16.6097 2.49642C18.5176 4.17728 19.7135 6.52185 19.9542 9.05317C20.1948 11.5845 19.4621 14.1124 17.9051 16.1227H17.9063ZM10.0005 17.4989C11.9895 17.4989 13.8971 16.7087 15.3035 15.3023C16.71 13.8958 17.5001 11.9882 17.5001 9.99922C17.5001 8.01018 16.71 6.10262 15.3035 4.69616C13.8971 3.2897 11.9895 2.49956 10.0005 2.49956C8.01143 2.49956 6.10387 3.2897 4.69741 4.69616C3.29095 6.10262 2.50081 8.01018 2.50081 9.99922C2.50081 11.9882 3.29095 13.8958 4.69741 15.3023C6.10387 16.7087 8.01143 17.4989 10.0005 17.4989Z" fill="#8D8D8D"/>
</svg>
